Coordinates
version=1
nRows=6
nColumns=36
inDegrees=yes

Units are S.I. units (second, meters, Newtons, ...)
If the header above contains a line with 'inDegrees', this indicates whether rotational values are in degrees (yes) or radians (no).

endheader
time	pelvis_tilt	pelvis_list	pelvis_rotation	pelvis_tx	pelvis_ty	pelvis_tz	hip_flexion_r	hip_adduction_r	hip_rotation_r	knee_angle_r	knee_angle_r_beta	ankle_angle_r	subtalar_angle_r	mtp_angle_r	hip_flexion_l	hip_adduction_l	hip_rotation_l	knee_angle_l	knee_angle_l_beta	ankle_angle_l	subtalar_angle_l	mtp_angle_l	lumbar_extension	lumbar_bending	lumbar_rotation	arm_flex_r	arm_add_r	arm_rot_r	elbow_flex_r	pro_sup_r	arm_flex_l	arm_add_l	arm_rot_l	elbow_flex_l	pro_sup_l
      1.21666670	    -26.68793259	      1.00135622	     -3.72978464	     -0.86894150	      1.08487969	     -0.07359837	     57.85932020	      2.37665697	      3.34891088	     70.06089925	      1.22279337	     32.90957291	    -10.36062383	     -7.49999987	     53.36021927	      5.84952668	     11.45144197	     67.67863534	      1.18121502	     33.54851882	    -20.74776975	     -7.49999987	    -25.58052699	     -0.10936857	     -1.57653435	     30.84409278	    -19.58894029	     17.62855972	     36.15522816	     72.85785385	     34.87357860	    -18.61240262	     21.09328144	     50.18960820	     73.02367139
      1.22083330	    -26.81559341	      0.96529022	     -3.57320741	     -0.86336918	      1.08328791	     -0.07301550	     57.37286762	      2.35595076	      3.28597450	     70.08215346	      1.22316432	     33.11795736	    -10.43360827	     -7.49999987	     52.86805365	      5.84981882	     11.54938870	     67.56988457	      1.17931696	     33.97736844	    -20.99982078	     -7.49999987	    -24.94402606	     -0.03616775	     -1.64063880	     31.21326760	    -19.71508307	     17.48137515	     37.23251223	     72.34362017	     35.37703026	    -18.59718966	     20.92015987	     51.06474676	     72.48946248
      1.22500000	    -26.60133653	      0.49213316	     -2.98295739	     -0.86320725	      1.08303504	     -0.07079296	     56.77062440	      2.16736655	      2.40418785	     70.24991378	      1.22609229	     33.55385884	    -10.18074708	     -7.49999987	     52.38940790	      5.82114191	     12.22225647	     67.61050667	      1.18002595	     34.16679792	    -21.24101087	     -7.49999987	    -24.90323084	      0.60191902	     -1.84717574	     31.91976524	    -19.78755546	     16.56119368	     38.55907363	     71.72711540	     36.45522126	    -18.32047579	     20.13347723	     51.72944898	     71.69673676
      1.22916670	    -26.69836916	      0.37152220	     -2.54316200	     -0.85762550	      1.08199471	     -0.06878547	     56.38517353	      2.14249134	      2.18333108	     70.34466639	      1.22774604	     33.87862087	    -10.37702514	     -7.49999987	     52.20336359	      5.75103659	     12.43038383	     67.56897847	      1.17930115	     34.36467558	    -21.30153364	     -7.49999987	    -24.14688262	      0.59050960	     -2.00178083	     32.35598843	    -19.66797961	     16.37412395	     38.85750715	     71.80699314	     37.37632291	    -18.30449515	     19.91942043	     52.01846370	     71.74221719
      1.23333330	    -26.78614627	      0.03579243	     -2.00894871	     -0.85569867	      1.07906291	     -0.07092169	     56.27142712	      2.01516193	      1.70440058	     70.54199637	      1.23119010	     34.24812928	     -9.99903085	     -7.49999987	     52.32861996	      5.85272091	     12.93545668	     68.06324607	      1.18792774	     34.43597689	    -21.44942286	     -7.49999987	    -23.51840980	      1.08276742	     -2.31364718	     32.75351561	    -19.74396509	     15.21246323	     40.38323463	     71.72810367	     38.24200703	    -18.27565819	     19.39123389	     53.10744318	     71.52361725
      1.23750000	    -26.86429975	     -0.01526615	     -1.97147229	     -0.85361364	      1.08083739	     -0.07160626	     56.11530316	      2.00638603	      1.59058109	     70.33862358	      1.22764057	     34.38754437	    -10.08470551	     -7.49999987	     52.14397402	      5.93178958	     13.17013936	     67.99853124	      1.18679826	     34.32916821	    -21.60642976	     -7.49999987	    -23.02058254	      1.06224772	     -2.32302050	     33.59387701	    -19.89066662	     14.74153965	     41.70999415	     71.19316483	     39.47854496	    -18.26890412	     18.98636294	     54.28534067	     70.93914802
